PathFileType        4      (X/Y/Z)      Walking.trc         
DataRate	CameraRate	NumFrames	NumMarkers	Units	OrigDataRate	OrigDataStartFrame	OrigNumFrames
100.0	100.0	4	22	mm	100.0	1	84
Frame#	Time	T2			T10			MANU			LASI			RASI			SACR			LTHI			LKNE			LTIB			LANK			LHEE			LTOE			LD1MH			LD5MH			RTHI			RKNE			RTIB			RANK			RHEE			RTOE			RD1MH			RD5MH			
		X1	Y1	Z1	X2	Y2	Z2	X3	Y3	Z3	X4	Y4	Z4	X5	Y5	Z5	X6	Y6	Z6	X7	Y7	Z7	X8	Y8	Z8	X9	Y9	Z9	X10	Y10	Z10	X11	Y11	Z11	X12	Y12	Z12	X13	Y13	Z13	X14	Y14	Z14	X15	Y15	Z15	X16	Y16	Z16	X17	Y17	Z17	X18	Y18	Z18	X19	Y19	Z19	X20	Y20	Z20	X21	Y21	Z21	X22	Y22	Z22	
1	1.24	14.33120599	1088.40060873	-102.47553518	-0.85160976	908.5541722	-97.74325791	126.33917397	1060.14471146	-101.98479556	118.03891796	700.38793186	-182.39309512	131.26753974	710.43967154	-11.02536397	-10.29628868	752.13488236	-86.13987222	-6.52192443	421.15179861	-231.72751865	-36.69505573	366.41644178	-183.50424838	-195.48468588	197.58310686	-224.29998115	-255.71206274	131.20609884	-176.29322853	-319.80262499	126.8098684	-137.27897637	-189.42391166	28.69914768	-139.51417614	-197.37214055	31.43189739	-91.36535547	-222.88514106	27.70236915	-182.87346258	185.01415045	439.92296546	50.99808781	212.54380068	370.82277821	-5.32343756	248.41665793	137.8592714	15.57905154	280.15492479	61.20006503	-34.56148373	247.78044134	15.19249762	-81.63442796	411.89772427	55.96428106	-55.79467913	401.05724749	53.34099324	-108.996923	385.91936964	31.74171724	-18.65990476	
2	1.25	29.41512053	1087.43199978	-101.74510826	15.102985	907.57394119	-97.43265963	141.66084719	1059.70808983	-101.03138886	134.39216643	698.75802688	-180.99208819	147.24132289	710.40577972	-9.75915958	5.79476304	751.28753755	-85.81883029	13.48319051	418.42881038	-231.67390642	-15.74549438	363.20439304	-183.89294516	-181.29845701	201.97270804	-224.40676197	-243.61258297	138.04912239	-176.47198822	-307.01575409	138.46816209	-137.04211721	-188.02086634	29.73934954	-139.43928764	-195.9554219	33.4316473	-91.20255859	-219.93513704	31.68947841	-182.59958376	202.01272362	440.38963433	51.33425942	228.99411127	371.01194493	-5.14479006	257.21207901	137.19106497	14.70854061	284.28065799	59.85119294	-35.87036287	248.94415675	15.33784509	-82.20268055	416.05521651	47.73979379	-58.2403915	404.50371458	44.7692397	-111.35734443	388.28773398	25.52075676	-20.12224275	
3	1.26	44.49731818	1086.76861297	-101.0931169	30.97414653	906.91381222	-97.20661033	156.95024001	1059.52397314	-100.13312299	150.6524809	697.39231811	-179.52034691	163.04192333	710.71893485	-8.43431226	21.75110825	750.74598928	-85.54649983	34.21932046	415.75830382	-231.84872632	6.30202088	359.97866122	-184.58754444	-165.49936243	206.48462161	-224.62284248	-229.7349923	145.22135159	-176.63304786	-292.16464542	150.56390277	-136.82433279	-185.12768792	31.48517544	-139.58368055	-193.01040361	36.0871126	-91.20900025	-215.32808404	36.69333918	-182.51340129	218.63698493	441.12649603	51.77421531	244.98422036	371.43046804	-4.92418345	265.20424845	136.82636177	14.07469695	287.4049861	58.83129974	-36.92409491	249.33619364	15.70056838	-82.4791019	419.28689385	40.60100218	-60.27383491	407.07510349	37.09500634	-113.26369614	389.76555214	20.32653385	-21.06685209	
4	1.27	59.55273878	1086.42961247	-100.52418822	46.72255995	906.59235107	-97.05350487	172.1796748	1059.60158148	-99.30643906	166.75656265	696.33206498	-178.00187769	178.63608708	711.37598808	-7.0688774	37.52838733	750.52943584	-85.30170447	55.56931872	413.2481206	-232.22418234	29.35989069	356.87302434	-185.53875806	-148.03310576	211.04585054	-224.93822791	-214.03757455	152.61611594	-176.77067095	-275.28357328	162.78980674	-136.62479668	-180.16851357	34.0033307	-140.04147542	-187.91838471	39.37595859	-91.47876598	-208.61016021	42.67407962	-182.67182949	234.67428916	442.04671706	52.32663349	260.26683536	371.98652539	-4.65829035	272.40310956	136.74241516	13.68156889	289.74006311	58.15380882	-37.71881926	249.29456027	16.21336499	-82.51234168	421.73916472	34.90472728	-61.87901865	408.94668647	30.71757078	-114.70800752	390.63782421	16.39130257	-21.55353014	
